<svg xmlns="http://www.w3.org/2000/svg" viewBox="0 0 60 60">
  <path fill-rule="evenodd" fill="#4d81cc" d="M46.341,57.013 L36.962,47.986 L40.539,44.542 L46.341,50.126 L57.202,39.672 L60.780,43.116 L46.341,57.013 ZM41.281,35.564 C36.888,37.810 30.214,38.973 23.570,38.973 C16.926,38.973 10.253,37.810 5.860,35.564 L5.860,38.973 C5.860,40.387 12.066,43.843 23.570,43.843 C27.617,43.843 30.994,43.411 33.691,42.795 L33.691,47.775 C30.527,48.395 27.043,48.713 23.570,48.713 C12.254,48.713 0.800,45.368 0.800,38.973 L0.800,9.752 C0.800,3.357 12.254,0.011 23.570,0.011 C34.886,0.011 46.341,3.357 46.341,9.752 L46.341,38.973 L41.281,38.973 L41.281,35.564 ZM23.570,4.882 C12.066,4.882 5.860,8.338 5.860,9.752 C5.860,11.165 12.066,14.622 23.570,14.622 C35.074,14.622 41.281,11.165 41.281,9.752 C41.281,8.338 35.074,4.882 23.570,4.882 ZM41.281,16.083 C36.888,18.330 30.214,19.492 23.570,19.492 C16.926,19.492 10.253,18.330 5.860,16.083 L5.860,19.492 C5.860,20.906 12.066,24.363 23.570,24.363 C35.074,24.363 41.281,20.906 41.281,19.492 L41.281,16.083 ZM41.281,25.823 C36.888,28.070 30.214,29.232 23.570,29.232 C16.926,29.232 10.253,28.070 5.860,25.823 L5.860,29.232 C5.860,30.646 12.066,34.102 23.570,34.102 C35.074,34.102 41.281,30.646 41.281,29.232 L41.281,25.823 Z"></path>
</svg>
